<svg viewBox="0 0 512 512" xmlns="http://www.w3.org/2000/svg"><path d="m305 107h-98c-11 0-20-9-20-20v-67c0-11 9-20 20-20h98c11 0 20 9 20 20v67c0 11-9 20-20 20zm-78-40h58v-27h-58zm78 175h-98c-11 0-20-9-20-20v-67c0-11 9-20 20-20h98c11 0 20 9 20 20v67c0 11-9 20-20 20zm-78-40h58v-27h-58zm78 175h-98c-11 0-20-9-20-20v-67c0-11 9-20 20-20h98c11 0 20 9 20 20v67c0 11-9 20-20 20zm-78-40h58v-27h-58zm78 175h-98c-11 0-20-9-20-20v-67c0-11 9-20 20-20h98c11 0 20 9 20 20v67c0 11-9 20-20 20zm-78-40h58v-27h-58zm-109-95h-98c-11 0-20-9-20-20v-67c0-11 9-20 20-20h98c11 0 20 9 20 20v67c0 11-9 20-20 20zm-78-40h58v-27h-58zm78 175h-98c-11 0-20-9-20-20v-67c0-11 9-20 20-20h98c11 0 20 9 20 20v67c0 11-9 20-20 20zm-78-40h58v-27h-58zm452-230h-98c-11 0-20-9-20-20v-67c0-11 9-20 20-20h98c11 0 20 9 20 20v67c0 11-9 20-20 20zm-78-40h58v-27h-58zm78 175h-98c-11 0-20-9-20-20v-67c0-11 9-20 20-20h98c11 0 20 9 20 20v67c0 11-9 20-20 20zm-78-40h58v-27h-58zm78 175h-98c-11 0-20-9-20-20v-67c0-11 9-20 20-20h98c11 0 20 9 20 20v67c0 11-9 20-20 20zm-78-40h58v-27h-58z" fill="#fff"/></svg>